<svg xmlns="http://www.w3.org/2000/svg" style="display:none" aria-hidden="true">
  <symbol id="icon-wallet" viewBox="0 0 24 24" fill="none" stroke="currentColor" stroke-width="1.8" stroke-linecap="round" stroke-linejoin="round">
    <path d="M3 7a2 2 0 0 1 2-2h14v14H5a2 2 0 0 1-2-2V7z" />
    <path d="M19 10h2v4h-2" />
    <circle cx="17" cy="12" r="0.8" fill="currentColor" stroke="none" />
  </symbol>

  <symbol id="icon-chart" viewBox="0 0 24 24" fill="none" stroke="currentColor" stroke-width="1.8" stroke-linecap="round" stroke-linejoin="round">
    <path d="M4 20V10" />
    <path d="M10 20V4" />
    <path d="M16 20v-7" />
    <path d="M22 20v-11" />
  </symbol>

  <symbol id="icon-card" viewBox="0 0 24 24" fill="none" stroke="currentColor" stroke-width="1.8" stroke-linecap="round" stroke-linejoin="round">
    <rect x="2.5" y="5" width="19" height="14" rx="2.2" />
    <path d="M2.5 10h19" />
    <path d="M6 15h4" />
  </symbol>

  <symbol id="icon-target" viewBox="0 0 24 24" fill="none" stroke="currentColor" stroke-width="1.8" stroke-linecap="round" stroke-linejoin="round">
    <circle cx="12" cy="12" r="8" />
    <circle cx="12" cy="12" r="4.5" />
    <circle cx="12" cy="12" r="1" fill="currentColor" stroke="none" />
  </symbol>

  <symbol id="icon-sync" viewBox="0 0 24 24" fill="none" stroke="currentColor" stroke-width="1.8" stroke-linecap="round" stroke-linejoin="round">
    <path d="M20 7v5h-5" />
    <path d="M4 17v-5h5" />
    <path d="M19 12a7 7 0 0 0-12-4" />
    <path d="M5 12a7 7 0 0 0 12 4" />
  </symbol>
</svg>
